<svg width="26" height="26" viewBox="0 0 26 26" fill="none" xmlns="http://www.w3.org/2000/svg">
<path d="M14.4822 7.56066L6.53816 15.5047C6.52714 15.5158 6.51619 15.5267 6.50533 15.5375C6.34285 15.6996 6.19903 15.8432 6.09766 16.0222C5.9963 16.2012 5.94722 16.3984 5.89179 16.6211C5.88809 16.636 5.88435 16.651 5.88057 16.6662L5.13371 19.6536C5.13149 19.6625 5.12926 19.6714 5.12702 19.6803C5.08778 19.837 5.04587 20.0043 5.03212 20.1449C5.01699 20.2996 5.02052 20.5607 5.22993 20.7701C5.43934 20.9795 5.70039 20.983 5.85512 20.9679C5.99566 20.9541 6.163 20.9122 6.31969 20.873C6.32863 20.8707 6.33753 20.8685 6.34638 20.8663L9.33384 20.1194C9.34896 20.1156 9.36397 20.1119 9.37886 20.1082C9.60159 20.0528 9.79876 20.0037 9.9778 19.9023L9.73145 19.4672L9.9778 19.9023C10.1568 19.801 10.3003 19.6571 10.4625 19.4947C10.4733 19.4838 10.4842 19.4729 10.4953 19.4618L18.4393 11.5178L18.4626 11.4945C18.7761 11.1811 19.0461 10.9111 19.2333 10.6657C19.4339 10.4028 19.5858 10.1104 19.5858 9.75C19.5858 9.38961 19.4339 9.09719 19.2333 8.83427C19.0461 8.58894 18.776 8.3189 18.4626 8.0055L18.4393 7.98223L18.0178 7.56066L17.9945 7.53737C17.6811 7.22394 17.4111 6.95388 17.1657 6.7667C16.9028 6.5661 16.6104 6.41421 16.25 6.41421C15.8896 6.41421 15.5972 6.5661 15.3343 6.7667C15.0889 6.95388 14.8189 7.22395 14.5055 7.53738L14.4822 7.56066Z" stroke="#222222"/>
<path d="M13.5417 8.12501L16.7917 5.95834L20.0417 9.20834L17.875 12.4583L13.5417 8.12501Z" fill="#222222"/>
</svg>
